<?xml version="1.0" standalone="no"?>
<!DOCTYPE svg PUBLIC "-//W3C//DTD SVG 20010904//EN"
 "http://www.w3.org/TR/2001/REC-SVG-20010904/DTD/svg10.dtd">
<svg version="1.0" xmlns="http://www.w3.org/2000/svg"
 width="1044.000000pt" height="1044.000000pt" viewBox="0 0 1044.000000 1044.000000"
 preserveAspectRatio="xMidYMid meet">
<metadata>
Created by potrace 1.11, written by Peter Selinger 2001-2013
</metadata>
<g transform="translate(0.000000,1044.000000) scale(0.100000,-0.100000)"
fill="#000000" stroke="none">
<path d="M10 9680 c0 -6 8 -18 18 -28 9 -10 23 -30 31 -45 8 -15 18 -27 23
-27 4 0 8 -6 8 -13 0 -8 9 -22 20 -32 11 -10 20 -22 20 -26 0 -5 20 -39 44
-76 48 -76 202 -352 236 -426 12 -26 26 -50 31 -53 5 -3 9 -14 9 -25 0 -10 3
-19 8 -19 4 0 18 -27 31 -60 13 -33 28 -60 33 -60 4 0 8 -7 8 -15 0 -8 8 -29
18 -47 10 -18 31 -62 46 -98 16 -36 41 -92 56 -125 15 -33 42 -94 60 -135 18
-41 38 -88 46 -105 46 -104 194 -478 266 -670 77 -207 107 -278 120 -283 5 -2
6 -8 2 -13 -3 -5 0 -9 5 -9 6 0 11 -5 11 -11 0 -13 72 -133 83 -137 4 -2 7 -8
7 -13 0 -10 3 -13 86 -114 226 -273 564 -486 1019 -640 44 -15 87 -30 95 -33
8 -3 20 -6 27 -8 15 -3 83 -24 103 -31 8 -3 24 -7 35 -9 11 -2 92 -21 180 -44
88 -22 169 -42 180 -45 11 -2 20 -4 20 -5 0 -1 9 -3 20 -5 26 -5 86 -17 105
-22 8 -2 26 -5 40 -8 60 -10 86 -16 100 -21 8 -3 26 -7 40 -9 14 -2 81 -16
150 -30 69 -15 143 -29 165 -32 22 -3 48 -9 57 -14 24 -13 27 -11 25 11 -1 11
-6 20 -11 20 -5 0 -7 3 -4 6 3 3 -9 37 -28 75 -19 38 -34 72 -34 75 0 3 -18
44 -40 90 -22 47 -40 86 -40 89 0 2 -16 37 -35 77 -20 40 -36 74 -36 75 1 2
-11 29 -26 60 -15 32 -27 60 -28 63 0 3 -8 23 -19 45 -10 22 -28 63 -41 90
-12 28 -39 85 -59 128 -20 43 -36 80 -36 83 0 3 -13 33 -29 67 -16 34 -43 94
-60 132 -36 82 -29 74 91 -103 43 -62 89 -128 103 -146 14 -18 25 -38 25 -44
0 -7 4 -12 8 -12 4 0 15 -12 24 -27 9 -16 25 -38 35 -50 10 -12 30 -41 45 -65
15 -23 70 -104 122 -178 106 -152 226 -325 241 -348 6 -9 18 -25 28 -36 9 -11
17 -23 17 -28 0 -17 18 -7 25 15 4 12 8 24 9 27 27 61 73 202 81 245 2 11 5
29 8 40 46 198 53 499 17 706 -19 111 -58 276 -68 294 -4 6 -8 16 -9 23 -2 6
-4 18 -6 25 -1 6 -5 17 -8 22 -4 6 -12 28 -19 50 -7 22 -20 56 -28 75 -9 19
-16 37 -17 40 -4 24 -175 341 -195 360 -7 7 -29 42 -37 60 -4 8 -17 26 -30 40
-13 14 -23 30 -23 37 0 6 -4 13 -8 15 -5 2 -33 35 -62 73 -119 154 -262 294
-420 411 -36 27 -67 51 -70 54 -8 9 -207 134 -270 169 -102 58 -323 164 -445
213 -93 39 -100 41 -107 43 -5 2 -10 4 -13 5 -3 1 -8 3 -12 5 -5 1 -15 5 -23
8 -31 13 -237 83 -270 92 -8 2 -78 22 -155 45 -116 34 -255 70 -325 85 -8 2
-55 13 -103 24 -48 12 -99 21 -112 21 -14 0 -25 3 -25 8 0 4 -10 7 -22 8 -22
0 -79 10 -122 19 -48 11 -105 20 -176 29 -14 2 -34 6 -45 9 -11 3 -44 9 -74
12 -30 4 -62 8 -72 10 -10 2 -45 6 -78 10 -33 3 -70 8 -83 11 -13 2 -50 6 -83
9 -33 2 -60 5 -60 6 0 1 -19 3 -150 14 -167 13 -215 14 -215 5z"/>
<path d="M10286 9522 c-2 -1 -41 -5 -87 -7 -240 -14 -372 -24 -514 -39 -22 -3
-76 -7 -120 -11 -44 -3 -98 -8 -120 -11 -46 -5 -124 -14 -175 -18 -41 -4 -130
-14 -180 -22 -19 -2 -55 -7 -80 -9 -25 -3 -54 -7 -65 -9 -11 -2 -47 -7 -80
-11 -33 -4 -69 -8 -80 -10 -11 -1 -45 -5 -75 -9 -30 -4 -80 -11 -110 -16 -30
-5 -77 -12 -105 -16 -27 -3 -52 -7 -55 -9 -3 -2 -29 -6 -59 -10 -30 -4 -63 -9
-75 -11 -12 -2 -37 -7 -56 -10 -19 -3 -80 -14 -135 -25 -55 -10 -111 -21 -125
-23 -14 -3 -25 -5 -25 -6 0 -1 -11 -3 -25 -4 -29 -3 -58 -9 -185 -36 -49 -11
-106 -22 -125 -25 -19 -3 -39 -10 -46 -15 -6 -6 -13 -7 -16 -4 -3 3 -32 -2
-64 -11 -33 -9 -69 -18 -81 -20 -13 -3 -33 -7 -45 -10 -13 -2 -48 -11 -78 -20
-30 -8 -68 -17 -84 -20 -16 -3 -37 -10 -46 -15 -10 -5 -19 -7 -22 -5 -4 5 -43
-6 -88 -22 -14 -6 -25 -9 -52 -16 -7 -2 -33 -9 -58 -16 -25 -8 -49 -14 -55
-16 -5 -1 -17 -5 -25 -8 -37 -15 -180 -59 -182 -56 -2 1 -14 -4 -28 -11 -14
-8 -32 -15 -41 -17 -13 -2 -174 -61 -219 -80 -8 -3 -17 -7 -20 -8 -3 -1 -23
-9 -45 -19 -22 -10 -44 -19 -50 -20 -5 -1 -20 -7 -32 -14 -12 -7 -29 -12 -37
-12 -9 0 -16 -4 -16 -10 0 -5 -5 -10 -11 -10 -13 0 -261 -122 -314 -155 -22
-14 -47 -28 -55 -32 -26 -12 -155 -98 -158 -105 -2 -5 -10 -8 -17 -8 -7 0 -15
-4 -17 -8 -1 -4 -21 -21 -43 -37 -70 -52 -87 -68 -206 -185 -64 -63 -149 -155
-188 -205 -39 -49 -76 -97 -83 -105 -7 -8 -39 -56 -70 -105 -32 -50 -61 -95
-65 -101 -40 -54 -196 -374 -196 -401 0 -7 -4 -13 -9 -13 -4 0 -7 -3 -6 -7 2
-7 -6 -33 -40 -123 -3 -8 -6 -17 -7 -20 -1 -3 -15 -50 -33 -105 -17 -55 -33
-111 -35 -125 -3 -14 -10 -45 -17 -70 -7 -25 -13 -52 -15 -60 -1 -8 -6 -33
-10 -55 -9 -42 -10 -49 -20 -103 -10 -55 -23 -149 -29 -212 -3 -25 -8 -79 -12
-120 -11 -100 -11 -586 0 -675 4 -38 10 -90 12 -115 5 -57 12 -109 19 -138 6
-25 7 -24 145 148 19 24 50 62 68 84 18 23 39 48 45 56 7 8 30 38 52 65 22 28
46 57 55 66 8 9 49 60 90 113 41 53 78 96 83 96 4 0 7 6 7 14 0 8 3 16 8 18 4
2 45 50 91 108 47 58 87 107 90 110 4 3 19 23 36 45 16 22 31 42 35 45 3 3 41
50 85 105 44 55 82 102 85 105 3 3 23 28 45 55 22 28 45 57 52 65 7 8 39 48
73 88 33 40 68 85 78 100 22 34 62 74 62 62 0 -5 -4 -11 -9 -15 -6 -3 -20 -27
-33 -53 -13 -26 -25 -49 -28 -52 -3 -3 -17 -27 -32 -55 -54 -103 -118 -219
-171 -315 -54 -96 -95 -173 -124 -230 -15 -30 -30 -57 -33 -60 -3 -3 -18 -30
-34 -60 -16 -30 -39 -71 -49 -90 -11 -19 -41 -73 -65 -120 -25 -47 -53 -96
-62 -110 -9 -14 -22 -40 -29 -57 -8 -18 -17 -33 -22 -33 -5 0 -9 -8 -9 -17 0
-9 -7 -24 -16 -34 -8 -9 -17 -23 -18 -31 -1 -7 -13 -31 -27 -53 -13 -22 -23
-43 -21 -47 1 -5 -2 -8 -6 -8 -5 0 -17 -19 -28 -42 -10 -24 -21 -45 -25 -48
-3 -3 -20 -34 -38 -70 -18 -36 -36 -67 -40 -70 -4 -3 -11 -13 -14 -23 -7 -18
-2 -19 75 -13 46 3 99 8 118 11 19 3 67 7 105 10 39 3 88 7 110 10 22 3 63 7
90 10 28 2 73 7 100 10 28 4 75 8 105 10 30 2 55 5 55 5 0 1 16 3 35 5 19 1
62 5 95 9 96 10 146 16 205 21 30 2 78 7 105 10 28 3 73 7 100 10 147 14 173
17 205 21 19 2 55 6 80 8 25 3 90 12 145 21 55 9 111 18 125 20 14 2 36 6 50
9 14 4 36 8 50 11 53 10 72 14 88 19 9 3 28 7 42 10 46 9 234 65 335 100 180
62 353 145 491 234 10 6 29 16 42 22 12 5 22 13 22 18 0 5 10 13 23 19 134 62
657 588 657 662 0 6 3 11 8 11 4 0 16 17 27 38 10 20 24 44 31 52 6 8 22 35
35 60 13 25 29 52 35 60 11 15 43 72 117 210 22 41 45 81 50 89 6 7 12 18 13
25 1 6 15 34 30 61 16 28 50 91 74 140 25 50 48 92 51 95 5 5 372 739 375 750
12 59 169 345 237 433 16 20 25 37 20 37 -4 0 -3 4 4 8 6 4 28 32 49 62 65 96
257 355 268 362 6 4 7 8 2 8 -6 0 -3 6 6 13 8 6 50 59 94 117 43 58 81 107 84
110 3 3 28 34 55 70 57 75 59 77 86 110 35 41 99 126 99 131 0 5 -140 6 -144
1z"/>
<path d="M3439 6768 c65 -130 108 -222 152 -323 38 -89 159 -389 159 -396 0
-4 8 -24 17 -45 9 -22 18 -42 19 -46 1 -5 2 -9 4 -10 1 -2 3 -10 5 -18 2 -8
18 -55 35 -105 18 -49 36 -103 40 -120 5 -16 18 -61 30 -100 29 -95 60 -205
66 -235 3 -14 8 -34 11 -45 4 -11 8 -25 9 -32 1 -7 10 -43 19 -80 10 -37 19
-79 21 -93 1 -14 5 -36 8 -50 4 -14 9 -38 11 -55 3 -16 8 -37 10 -45 2 -8 7
-37 11 -65 3 -27 8 -59 11 -70 9 -44 19 -114 28 -210 2 -16 7 -66 11 -110 4
-44 8 -183 7 -310 0 -208 -3 -262 -19 -375 -3 -19 -7 -53 -10 -75 -2 -22 -6
-51 -9 -65 -4 -14 -8 -36 -11 -50 -2 -14 -11 -59 -19 -100 -8 -41 -17 -92 -21
-114 -3 -21 -8 -48 -10 -60 -2 -11 -7 -37 -10 -56 -3 -19 -7 -42 -9 -50 -3 -8
-7 -35 -10 -60 -3 -25 -10 -74 -15 -110 -6 -36 -12 -81 -14 -100 -3 -19 -5
-35 -6 -35 -3 0 -15 -93 -25 -195 -4 -52 -13 -122 -20 -165 -3 -16 -7 -57 -10
-90 -2 -33 -7 -85 -11 -115 -3 -30 -7 -77 -9 -105 -2 -27 -4 -50 -5 -50 -1 0
-3 -29 -5 -65 -2 -36 -6 -99 -9 -140 -3 -41 -8 -109 -11 -150 -3 -41 -7 -129
-10 -195 -3 -66 -7 -135 -8 -152 -2 -18 1 -33 6 -33 4 0 5 -6 0 -12 -4 -7 -8
-47 -9 -88 -3 -130 -6 -420 -5 -537 l1 -113 285 0 285 0 -5 33 c-2 17 -7 50
-9 72 -3 22 -7 51 -10 65 -3 14 -7 57 -10 95 -3 39 -8 86 -10 105 -5 32 -12
124 -21 260 -2 30 -6 113 -10 184 -3 71 -7 132 -10 134 -2 3 0 13 6 23 5 11 6
19 1 19 -9 0 -8 641 1 830 10 194 31 466 43 545 3 22 8 60 9 85 4 56 14 137
20 170 2 14 7 52 11 85 3 33 8 62 9 65 4 6 18 115 18 138 0 6 5 12 10 12 5 0
7 6 4 13 -2 7 4 55 14 107 10 52 21 109 23 125 11 59 17 90 27 130 5 22 12 51
14 65 8 44 14 70 18 78 3 4 8 24 11 44 7 48 67 276 83 318 3 8 7 20 8 25 1 6
3 12 4 15 1 3 4 15 7 27 7 41 124 381 178 520 58 150 170 404 194 441 8 12 10
22 6 22 -5 0 -4 4 1 8 6 4 27 41 48 82 20 41 52 102 71 135 18 33 46 83 61
110 15 28 33 57 40 65 7 8 16 25 19 38 4 12 12 22 17 22 5 0 9 7 9 15 0 8 5
15 10 15 6 0 10 6 10 13 0 12 9 26 50 74 5 7 10 15 10 18 0 6 52 88 61 95 3 3
18 23 32 45 14 22 47 66 72 98 26 31 42 57 36 57 -6 0 -11 -4 -11 -8 0 -5 -13
-21 -28 -38 -25 -26 -110 -126 -139 -164 -66 -84 -147 -186 -152 -190 -3 -3
-19 -23 -34 -46 -15 -22 -36 -50 -47 -62 -11 -12 -20 -24 -20 -26 0 -3 -7 -14
-14 -23 -17 -21 -84 -112 -106 -143 -8 -12 -22 -32 -31 -44 -9 -11 -36 -50
-60 -86 -24 -36 -47 -69 -51 -75 -11 -13 -89 -136 -105 -163 -7 -12 -19 -32
-25 -44 -7 -13 -16 -25 -19 -28 -4 -3 -17 -25 -30 -49 -13 -24 -29 -51 -34
-60 -18 -28 -39 -66 -40 -71 -3 -15 -59 -116 -69 -122 -6 -4 -8 -8 -4 -8 4 0
-6 -26 -21 -57 -25 -49 -89 -205 -98 -238 -1 -5 -13 -48 -26 -95 -26 -91 -27
-91 -43 15 -8 48 -9 56 -17 75 -3 8 -8 31 -11 51 -3 20 -8 42 -10 50 -3 8 -8
26 -11 42 -12 66 -17 81 -26 99 -5 10 -8 22 -6 26 3 4 0 18 -6 32 -5 14 -11
32 -12 40 -1 8 -14 56 -29 105 -26 88 -35 120 -39 140 -2 6 -5 15 -9 20 -3 6
-9 26 -13 45 -4 19 -10 40 -13 45 -4 6 -7 15 -8 20 -3 15 -74 217 -84 240 -31
67 -112 272 -113 283 0 6 -4 12 -8 12 -4 0 -11 10 -15 23 -13 45 -140 292
-195 382 -11 17 -22 37 -26 45 -3 8 -20 35 -37 60 -17 25 -35 52 -41 61 -56
92 -253 339 -270 339 -1 0 28 -60 64 -132z"/>
<path d="M5599 6513 c-13 -16 -12 -17 4 -4 9 7 17 15 17 17 0 8 -8 3 -21 -13z"/>
</g>
</svg>
